<?xml version="1.0" encoding="UTF-8" ?>
<!DOCTYPE svg PUBLIC "-//W3C//DTD SVG 1.1//EN" "http://www.w3.org/Graphics/SVG/1.1/DTD/svg11.dtd">
<svg width="180pt" height="180pt" viewBox="0 0 180 180" version="1.1" xmlns="http://www.w3.org/2000/svg">
<g id="#ffffffff">
<path fill="#ffffff" opacity="1.00" d=" M 31.73 54.53 C 37.15 54.53 42.58 54.53 48.00 54.53 C 48.00 68.02 48.01 81.50 47.99 94.98 C 47.98 99.16 48.48 103.62 51.09 107.06 C 55.87 113.48 66.58 113.71 71.96 107.93 C 74.52 104.96 75.59 100.95 75.60 97.08 C 75.60 82.89 75.60 68.71 75.59 54.53 C 81.03 54.52 86.46 54.57 91.89 54.50 C 91.83 68.70 91.89 82.89 91.86 97.09 C 91.85 105.36 88.62 113.85 82.16 119.21 C 75.33 125.02 65.82 126.84 57.09 125.73 C 49.15 124.83 41.27 120.84 36.83 114.03 C 33.16 108.79 31.78 102.32 31.75 96.01 C 31.71 82.18 31.75 68.36 31.73 54.53 Z" />
<path fill="#ffffff" opacity="1.00" d=" M 103.31 73.01 C 110.61 66.84 117.84 60.60 125.20 54.50 C 129.27 54.56 133.34 54.53 137.41 54.53 C 137.39 74.35 137.41 94.17 137.40 114.00 C 141.26 114.00 145.13 114.00 149.00 114.00 C 149.00 117.67 149.00 121.33 149.00 125.00 C 135.71 125.00 122.42 125.01 109.13 124.99 C 109.14 121.33 109.14 117.67 109.13 114.01 C 113.58 114.02 118.04 113.92 122.49 114.08 C 122.67 100.47 122.34 86.85 122.67 73.24 C 119.29 75.75 116.47 79.13 112.64 80.97 C 107.77 81.66 106.11 75.86 103.31 73.01 Z" />
</g>
</svg>
