<?xml version="1.0" encoding="UTF-8" ?>
<!DOCTYPE svg PUBLIC "-//W3C//DTD SVG 1.1//EN" "http://www.w3.org/Graphics/SVG/1.1/DTD/svg11.dtd">
<svg width="180pt" height="180pt" viewBox="0 0 180 180" version="1.1" xmlns="http://www.w3.org/2000/svg">
<g id="#ffffffff">
<path fill="#ffffff" opacity="1.00" d=" M 104.80 62.91 C 110.35 55.35 120.68 52.94 129.55 54.35 C 136.21 55.27 142.81 59.19 145.53 65.55 C 149.15 73.24 147.23 82.55 142.20 89.16 C 135.70 97.86 127.17 104.77 120.12 112.98 C 127.02 109.97 134.68 111.30 141.98 110.98 C 144.45 110.60 147.21 111.76 148.12 114.21 C 148.65 117.78 148.31 121.41 148.40 125.00 C 131.97 125.00 115.55 125.00 99.13 125.00 C 99.25 121.62 98.48 117.61 101.14 114.95 C 107.71 108.24 114.32 101.57 120.89 94.86 C 125.64 90.05 130.70 84.77 131.83 77.82 C 132.43 74.35 132.32 70.04 129.43 67.58 C 125.18 64.40 118.19 65.98 115.88 70.81 C 114.80 72.69 114.35 75.42 111.86 75.92 C 108.00 76.53 104.28 74.89 100.43 74.84 C 100.25 70.50 102.35 66.38 104.80 62.91 Z" />
<path fill="#ffffff" opacity="1.00" d=" M 30.73 54.53 C 36.15 54.53 41.58 54.53 47.00 54.53 C 47.00 68.04 47.01 81.54 46.99 95.05 C 46.99 99.20 47.50 103.64 50.08 107.05 C 54.86 113.47 65.55 113.71 70.94 107.96 C 73.51 104.98 74.59 100.96 74.60 97.09 C 74.61 82.90 74.60 68.72 74.59 54.53 C 80.02 54.52 85.45 54.58 90.88 54.49 C 90.84 68.71 90.88 82.92 90.87 97.14 C 90.85 105.60 87.43 114.31 80.66 119.62 C 74.08 124.97 65.16 126.66 56.88 125.84 C 48.90 125.06 40.88 121.33 36.24 114.61 C 32.29 109.28 30.77 102.55 30.74 96.01 C 30.71 82.19 30.75 68.36 30.73 54.53 Z" />
</g>
</svg>
