<?xml version="1.0" encoding="UTF-8" ?>
<!DOCTYPE svg PUBLIC "-//W3C//DTD SVG 1.1//EN" "http://www.w3.org/Graphics/SVG/1.1/DTD/svg11.dtd">
<svg width="180pt" height="180pt" viewBox="0 0 180 180" version="1.1" xmlns="http://www.w3.org/2000/svg">
<g id="#ffffffff">
<path fill="#ffffff" opacity="1.00" d=" M 114.46 56.35 C 123.04 52.71 133.79 52.96 141.40 58.70 C 148.16 63.77 149.65 73.74 146.11 81.11 C 144.44 84.56 140.94 86.55 137.49 87.84 C 142.45 89.32 147.01 93.02 148.43 98.14 C 150.31 105.18 148.77 113.27 143.71 118.65 C 138.47 124.24 130.45 126.25 123.01 126.03 C 117.46 125.77 111.66 124.33 107.49 120.47 C 103.56 116.97 101.39 112.07 99.42 107.31 C 102.93 106.03 106.21 103.73 110.02 103.55 C 114.35 103.87 114.91 108.88 117.72 111.26 C 121.28 115.02 127.75 114.92 131.40 111.35 C 134.72 108.26 134.68 103.21 133.82 99.10 C 131.41 93.88 124.60 94.12 119.73 93.97 C 119.73 90.66 119.73 87.35 119.73 84.05 C 124.02 83.95 129.27 83.84 132.20 80.19 C 133.99 76.87 133.89 72.47 132.08 69.16 C 128.58 63.87 119.42 65.42 117.17 71.13 C 116.19 73.35 115.13 76.13 112.34 76.46 C 108.65 76.46 105.10 75.13 101.41 74.88 C 102.42 67.09 107.09 59.52 114.46 56.35 Z" />
<path fill="#ffffff" opacity="1.00" d=" M 30.73 54.53 C 36.15 54.53 41.58 54.53 47.00 54.53 C 47.00 68.01 47.01 81.49 46.99 94.96 C 46.99 99.10 47.46 103.52 50.01 106.95 C 54.86 113.64 66.15 113.77 71.36 107.45 C 73.64 104.50 74.60 100.71 74.60 97.03 C 74.60 82.86 74.60 68.69 74.59 54.53 C 80.02 54.52 85.45 54.58 90.88 54.49 C 90.85 68.67 90.88 82.85 90.87 97.03 C 90.86 105.32 87.65 113.84 81.17 119.21 C 74.35 125.01 64.86 126.82 56.15 125.74 C 48.42 124.86 40.72 121.11 36.23 114.60 C 32.28 109.27 30.77 102.54 30.74 96.00 C 30.71 82.18 30.75 68.36 30.73 54.53 Z" />
</g>
</svg>
